<?xml version="1.0" encoding="iso-8859-1"?>
<!-- Generator: Adobe Illustrator 18.0.0, SVG Export Plug-In . SVG Version: 6.00 Build 0)  -->
<!DOCTYPE svg PUBLIC "-//W3C//DTD SVG 1.1//EN" "http://www.w3.org/Graphics/SVG/1.1/DTD/svg11.dtd">
<svg version="1.1" id="Capa_1" xmlns="http://www.w3.org/2000/svg" xmlns:xlink="http://www.w3.org/1999/xlink" x="0px" y="0px"
	 viewBox="0 0 512 512" style="enable-background:new 0 0 512 512;" xml:space="preserve">
<g>
	<path style="fill:#B1C3D0;" d="M360,512H104c-8.837,0-16-7.163-16-16v-64c0-8.837,7.163-16,16-16h256c8.837,0,16,7.163,16,16v64
		C376,504.837,368.837,512,360,512z"/>
	<path style="fill:#8EADBE;" d="M360,448v32c0,8.837-7.163,16-16,16H120c-8.837,0-16,7.163-16,16l0,0h136h32h88
		c8.837,0,16-7.163,16-16v-64l0,0C367.163,432,360,439.163,360,448z"/>
	<rect x="159.946" y="400" style="fill:#748A9D;" width="144.054" height="16"/>
	<rect x="272" y="400" style="fill:#576D7E;" width="32" height="16"/>
	<path style="fill:#8EADBE;" d="M224,472c-7.447,0-13.651-5.107-15.435-12c-0.332,1.286-0.565,2.61-0.565,4c0,8.844,7.164,16,16,16
		c8.836,0,16-7.156,16-16c0-1.39-0.233-2.714-0.565-4C237.651,466.893,231.447,472,224,472z"/>
	<path style="fill:#35495C;" d="M240,456c0,8.844-7.164,16-16,16c-8.836,0-16-7.156-16-16c0-8.843,7.164-16,16-16
		C232.836,440,240,447.157,240,456z"/>
	<path style="fill:#8EADBE;" d="M176,472c-7.447,0-13.651-5.107-15.435-12c-0.332,1.286-0.565,2.61-0.565,4c0,8.844,7.164,16,16,16
		c8.836,0,16-7.156,16-16c0-1.39-0.233-2.714-0.565-4C189.651,466.893,183.447,472,176,472z"/>
	<path style="fill:#35495C;" d="M192,456c0,8.844-7.164,16-16,16c-8.836,0-16-7.156-16-16c0-8.843,7.164-16,16-16
		C184.836,440,192,447.157,192,456z"/>
	<path style="fill:#8EADBE;" d="M128,472c-7.447,0-13.651-5.107-15.435-12c-0.332,1.286-0.565,2.61-0.565,4c0,8.844,7.164,16,16,16
		c8.836,0,16-7.156,16-16c0-1.39-0.233-2.714-0.565-4C141.651,466.893,135.447,472,128,472z"/>
	<path style="fill:#35495C;" d="M144,456c0,8.844-7.164,16-16,16c-8.836,0-16-7.156-16-16c0-8.843,7.164-16,16-16
		C136.836,440,144,447.157,144,456z"/>
	<path style="fill:#E2E4E6;" d="M321.616,400H142.427c-12.624,0-23.09-9.78-23.945-22.376L96.668,40H368l-22.442,337.67
		C344.681,390.246,334.222,400,321.616,400z"/>
	<path style="fill:#D0D7DA;" d="M384,120h-21.317L368,40c-31.568,0-57.783,24.516-60.086,56l-17.074,249.193
		c-1.6,21.876-35.815,38.807-57.75,38.807H119.906c3.321,9.346,12.146,16,22.521,16H232h89.616c12.607,0,23.064-9.754,23.942-22.33
		L352.05,280H384c22.054,0,40-17.946,40-40v-80C424,137.945,406.054,120,384,120z M392,240c0,4.414-3.585,8-8,8h-29.824l6.38-96H384
		c4.415,0,8,3.585,8,8V240z"/>
	<g>
		<path style="fill:#FFFFFF;" d="M272,216h-80c-4.418,0-8-3.578-8-8s3.582-8,8-8h80c4.418,0,8,3.578,8,8S276.418,216,272,216z"/>
	</g>
	<g>
		<path style="fill:#FFFFFF;" d="M272,264h-80c-4.418,0-8-3.578-8-8s3.582-8,8-8h80c4.418,0,8,3.578,8,8S276.418,264,272,264z"/>
	</g>
	<g>
		<path style="fill:#FFFFFF;" d="M272,168h-80c-4.418,0-8-3.578-8-8s3.582-8,8-8h80c4.418,0,8,3.578,8,8S276.418,168,272,168z"/>
	</g>
	<g>
		<path style="fill:#FFFFFF;" d="M272,120h-80c-4.418,0-8-3.578-8-8s3.582-8,8-8h80c4.418,0,8,3.578,8,8S276.418,120,272,120z"/>
	</g>
	<g>
		<path style="fill:#FFFFFF;" d="M272,312h-80c-4.418,0-8-3.578-8-8s3.582-8,8-8h80c4.418,0,8,3.578,8,8S276.418,312,272,312z"/>
	</g>
	<path style="fill:#576D7E;" d="M368,40H96V24c0-13.255,10.745-24,24-24h224c13.255,0,24,10.745,24,24V40z"/>
	<path style="fill:#8EADBE;" d="M233.09,384H216v16h16h16v-18.134C242.77,383.228,237.66,384,233.09,384z"/>
	<path style="fill:#B1C3D0;" d="M272,344h-80c-4.417,0-8,3.578-8,8c0,4.421,3.583,8,8,8h24v24h17.089
		c4.571,0,9.68-0.772,14.911-2.134V360h24c4.418,0,8-3.579,8-8C280,347.578,276.418,344,272,344z"/>
</g>
<g>
</g>
<g>
</g>
<g>
</g>
<g>
</g>
<g>
</g>
<g>
</g>
<g>
</g>
<g>
</g>
<g>
</g>
<g>
</g>
<g>
</g>
<g>
</g>
<g>
</g>
<g>
</g>
<g>
</g>
</svg>
