<?xml version="1.0" encoding="iso-8859-1"?>
<!-- Generator: Adobe Illustrator 19.0.0, SVG Export Plug-In . SVG Version: 6.00 Build 0)  -->
<svg version="1.1" id="Layer_1" xmlns="http://www.w3.org/2000/svg" xmlns:xlink="http://www.w3.org/1999/xlink" x="0px" y="0px"
	 viewBox="0 0 511.999 511.999" style="enable-background:new 0 0 511.999 511.999;" xml:space="preserve">
<path style="fill:#D4A8B4;" d="M411.662,100.34H281.699c0.992-2.824,1.537-5.86,1.537-9.024c0-15.041-12.194-27.235-27.235-27.235
	c-15.041,0-27.235,12.193-27.235,27.235c0,3.164,0.546,6.199,1.537,9.024H100.341c-14.478,0-26.325,11.846-26.325,26.325l0,0
	c0,14.479,11.846,26.325,26.325,26.325h311.32c14.478,0,26.325-11.846,26.325-26.325l0,0
	C437.985,112.188,426.14,100.34,411.662,100.34z"/>
<g>
	<path style="fill:#3C1146;" d="M411.66,165.56H100.341c-21.448,0-38.895-17.448-38.895-38.895s17.448-38.894,38.895-38.894h116.012
		c1.8-20.294,18.894-36.259,39.648-36.259s37.848,15.965,39.648,36.259H411.66c21.448,0,38.895,17.448,38.895,38.894
		C450.556,148.112,433.108,165.56,411.66,165.56z M100.341,112.91c-7.585,0-13.755,6.171-13.755,13.754
		c0,7.585,6.171,13.755,13.755,13.755H411.66c7.585,0,13.755-6.171,13.755-13.755c0-7.583-6.171-13.754-13.755-13.754H281.699
		c-4.075,0-7.899-1.976-10.256-5.302c-2.357-3.326-2.955-7.587-1.604-11.434c0.551-1.565,0.828-3.199,0.828-4.858
		c0-8.087-6.578-14.665-14.665-14.665s-14.665,6.578-14.665,14.665c0,1.659,0.279,3.293,0.828,4.858
		c1.35,3.846,0.753,8.108-1.604,11.434c-2.357,3.326-6.181,5.302-10.256,5.302H100.341z"/>
	<path style="fill:#3C1146;" d="M328.297,460.486H183.706c-57.169,0-103.68-46.511-103.68-103.681V223.552
		c0-6.941,5.629-12.57,12.57-12.57s12.57,5.629,12.57,12.57v133.253c0,43.308,35.233,78.541,78.54,78.541h144.592
		c43.307,0,78.54-35.233,78.54-78.541V223.552c0-6.941,5.629-12.57,12.57-12.57c6.941,0,12.57,5.629,12.57,12.57v133.253
		C431.977,413.975,385.466,460.486,328.297,460.486z"/>
</g>
<path style="fill:#D4A8B4;" d="M92.595,221.904c-14.821-9.359-31.634-15.499-49.104-17.716c-7.298-0.911-14.484,1.06-20.284,5.552
	c-5.775,4.475-9.478,10.956-10.415,18.236c-1.903,15.012,8.778,28.787,23.79,30.692c28.493,3.592,51.134,25.378,56.015,53.438
	v-90.202H92.595z"/>
<path style="fill:#3C1146;" d="M92.585,324.679c-6.051,0-11.318-4.352-12.374-10.415c-3.98-22.886-22.145-40.215-45.202-43.122
	c-21.908-2.779-37.464-22.851-34.688-44.745c1.37-10.628,6.761-20.063,15.187-26.59c7.098-5.499,15.571-8.405,24.502-8.405
	c1.672,0,3.367,0.106,5.037,0.314c19.073,2.421,37.828,9.184,54.26,19.561c3.646,2.303,5.858,6.314,5.858,10.628v90.205
	c0,6.522-4.99,11.963-11.489,12.523C93.31,324.664,92.945,324.679,92.585,324.679z M40.01,216.542c-3.307,0-6.456,1.085-9.106,3.137
	c-3.13,2.426-5.136,5.944-5.646,9.905c-1.029,8.118,4.758,15.583,12.904,16.616c16.03,2.021,30.46,8.761,41.864,18.855v-35.969
	c-11.858-6.484-24.907-10.751-38.117-12.427C41.293,216.582,40.645,216.542,40.01,216.542z"/>
<path style="fill:#D4A8B4;" d="M499.212,227.978c-0.938-7.28-4.642-13.763-10.415-18.236c-5.801-4.492-12.986-6.465-20.284-5.552
	c-17.468,2.217-34.283,8.355-49.104,17.716v90.204c4.881-28.06,27.52-49.846,56.015-53.438
	C490.434,256.767,501.115,242.99,499.212,227.978z"/>
<path style="fill:#3C1146;" d="M419.419,324.679c-0.362,0-0.725-0.015-1.092-0.046c-6.499-0.561-11.489-6-11.489-12.523v-90.205
	c0-4.314,2.211-8.325,5.858-10.628c16.433-10.378,35.187-17.14,54.234-19.559c10.751-1.34,21.137,1.56,29.564,8.087
	c8.427,6.529,13.818,15.964,15.184,26.568c2.78,21.919-12.776,41.989-34.675,44.767c-23.066,2.907-41.232,20.237-45.211,43.123
	C430.736,320.327,425.47,324.679,419.419,324.679z M431.977,229.086v35.97c11.403-10.094,25.839-16.836,41.873-18.857
	c8.138-1.031,13.925-8.497,12.892-16.639c-0.507-3.937-2.513-7.455-5.644-9.881c-3.158-2.444-7.045-3.507-11.028-3.016
	C456.882,218.336,443.834,222.602,431.977,229.086z"/>
<g>
</g>
<g>
</g>
<g>
</g>
<g>
</g>
<g>
</g>
<g>
</g>
<g>
</g>
<g>
</g>
<g>
</g>
<g>
</g>
<g>
</g>
<g>
</g>
<g>
</g>
<g>
</g>
<g>
</g>
</svg>
