<svg width="1440" height="1024" viewBox="0 0 1440 1024" fill="none" xmlns="http://www.w3.org/2000/svg">
<g id="Desktop - 1">
<rect width="1440" height="1024" fill="white"/>
<g id="pot">
<rect id="handleR" x="625" y="405" width="68" height="63" rx="10" fill="#D9D9D9"/>
<rect id="handleL" x="415" y="405" width="68" height="63" rx="10" fill="#D9D9D9"/>
<rect id="handleholeR" x="655" y="421" width="27" height="32" rx="5" fill="white"/>
<rect id="handleholeL" x="427" y="421" width="27" height="32" rx="5" fill="white"/>
<path id="potBody" d="M440 427C440 385.579 473.579 352 515 352H594C635.421 352 669 385.579 669 427V622C669 628.627 663.627 634 657 634H452C445.373 634 440 628.627 440 622V427Z" fill="#717572"/>
<ellipse id="potShine" cx="638.5" cy="544.5" rx="4.5" ry="62.5" fill="#C7C5C1"/>
<ellipse id="potHole" cx="554.5" cy="398.5" rx="92.5" ry="37.5" fill="black"/>
</g>
<g id="soup">
<ellipse id="soup1" cx="554" cy="407.5" rx="90" ry="28.5" fill="#E3AC5F"/>
<ellipse id="soup2" cx="554.5" cy="412" rx="87.5" ry="24" fill="#F5D09A"/>
<g id="soup3" filter="url(#filter0_f_0_3)">
<ellipse cx="587.5" cy="409" rx="37.5" ry="11" fill="#F5B04C"/>
</g>
<ellipse id="veg1" cx="510.5" cy="408" rx="15.5" ry="4" fill="#5ABF56"/>
<ellipse id="veg2" cx="589" cy="394" rx="18" ry="4" fill="#5ABF56"/>
<ellipse id="veg3" cx="562.5" cy="423.5" rx="17.5" ry="2.5" fill="#5ABF56"/>
<ellipse id="red2" cx="545" cy="394" rx="13" ry="4" fill="#D6542D"/>
<ellipse id="red1" cx="594.5" cy="421" rx="12.5" ry="5" fill="#D6542D"/>
<ellipse id="orange1" cx="554.5" cy="411.5" rx="16.5" ry="5.5" fill="#DB7C09"/>
<ellipse id="orange2" cx="617.5" cy="406.5" rx="16.5" ry="5.5" fill="#DB7C09"/>
<ellipse id="yellow1" cx="513.5" cy="423.5" rx="12.5" ry="2.5" fill="#E3E171"/>
</g>
<g id="spoon">
<path id="spoonHandle" d="M583.326 246C583.326 240.477 587.803 236 593.326 236H599.326C604.848 236 609.326 240.477 609.326 246V419H583.326V246Z" fill="#E6B873"/>
<path id="splash" d="M576.429 420.007C578.13 419.987 580.246 420.125 581.787 419.215C582.681 418.686 583.791 417.826 584.903 417.957C586.196 418.109 587.037 419.057 588.183 419.515C589.573 420.071 591.573 420.108 592.899 419.379C595.203 418.112 596.773 416.673 599.665 417.192C600.894 417.412 601.925 418.084 603.123 418.394C604.628 418.784 606.559 418.374 607.866 417.602C608.999 416.932 610.179 416.502 611.502 416.809C612.618 417.068 613.565 418.033 614.618 418.23C614.865 418.277 616.792 418.201 616.792 417.957C616.792 417.636 616.152 418.01 615.835 418.053C615.083 418.155 614.339 418.266 613.579 418.285C612.763 418.306 611.951 418.246 611.146 418.422C610.475 418.569 610.043 419.035 609.438 419.228C608.559 419.509 607.6 419.038 606.691 419.269C606.059 419.43 605.485 419.671 604.832 419.761C603.026 420.01 601.156 420.209 599.364 419.761C598.436 419.529 596.273 418.724 595.373 418.996C594.799 419.169 594.387 419.711 593.87 419.994C592.949 420.496 591.712 420.07 590.726 420.021C588.879 419.929 587.012 420.007 585.163 420.007C583.511 420.007 581.626 419.754 580.01 420.144C578.93 420.405 578.034 420.913 577.18 421.606C576.475 422.18 574.17 423.64 574.952 423.178C577.062 421.934 579.114 420.342 581.595 420.062C583.093 419.893 584.469 420.125 585.832 420.745C587.316 421.42 582.587 419.87 580.98 420.144C580.257 420.267 579.384 420.34 578.698 420.609C578.372 420.736 577.567 421.357 578.329 420.595C578.928 419.996 579.523 419.677 580.365 419.57C580.923 419.499 582.678 419.494 580.857 419.638C579.075 419.78 577.59 419.946 575.937 420.622C573.471 421.631 576.859 419.818 577.713 419.515C578.186 419.348 579.585 419.208 578.055 419.406C577.152 419.523 576.341 419.67 575.499 420.007C573.54 420.791 577.035 419.297 577.7 419.297C579.203 419.297 574.637 419.718 573.353 420.499C572.256 421.167 573.691 420.328 573.996 420.171C575.033 419.638 572.326 420.643 572 420.745" stroke="#F5D09A" stroke-width="3" stroke-linecap="round"/>
</g>
</g>
<defs>
<filter id="filter0_f_0_3" x="546" y="394" width="83" height="30" filterUnits="userSpaceOnUse" color-interpolation-filters="sRGB">
<feFlood flood-opacity="0" result="BackgroundImageFix"/>
<feBlend mode="normal" in="SourceGraphic" in2="BackgroundImageFix" result="shape"/>
<feGaussianBlur stdDeviation="2" result="effect1_foregroundBlur_0_3"/>
</filter>
</defs>
</svg>
